<svg width="32" height="32" viewBox="0 0 32 32" fill="none" xmlns="http://www.w3.org/2000/svg">
  <path d="M25.3659 10.5915V21.4066L16 26.8152L6.63416 21.4066V10.5915L16 5.18506L25.3659 10.5915Z" fill="#881ADB" />
  <path d="M16 5.18502L6.63416 10.5915L16 16.0001V16V5.18489V5.18502Z" fill="#A653E4" />
  <path d="M16 15.9999L6.63416 21.4063L16 26.8151V16" fill="#5E11CE" />
  <path d="M25.3659 10.5915L16 16.0001L25.3659 21.4066V21.4063V10.5915Z" fill="#5E11CE" />
  <path d="M16 5.18489V16L25.3659 10.5915L16 5.18502" fill="#8736DB" />
  <path d="M16 16.0001V26.815L25.3659 21.4063L16 16" fill="#3D0BBD" />
  <path
    d="M21.7371 12.5322H20.3912V15.3271H13.2337L15.2297 13.331L14.2781 12.3793L10.6573 16L14.2781 19.6208L15.2297 18.6691L13.2337 16.673H21.7371V12.5322Z"
    fill="white" />
</svg>