<svg width="18" height="18" viewBox="0 0 18 18" fill="none" xmlns="http://www.w3.org/2000/svg">
  <path
    d="M17.4677 15.0432L13.706 11.3105C14.4353 10.1705 14.8571 8.81905 14.8571 7.37233C14.8571 3.30742 11.5247 0 7.42816 0C3.33164 0 0 3.30742 0 7.37233C0 11.4372 3.33164 14.7447 7.42891 14.7447C8.81508 14.7447 10.1136 14.3659 11.2246 13.7074L15.0196 17.4731C16.64 19.0788 19.0889 16.6511 17.4677 15.0432ZM2.30297 7.37233C2.30297 4.56814 4.60292 2.28595 7.42891 2.28595C10.2549 2.28595 12.5549 4.5674 12.5549 7.37233C12.5549 10.1773 10.2549 12.4587 7.42891 12.4587C4.60292 12.4587 2.30297 10.1765 2.30297 7.37233Z"
    fill="#A7A7A9" />
</svg>