<svg width="59" height="59" viewBox="0 0 59 59" fill="none" xmlns="http://www.w3.org/2000/svg">
  <path
    d="M17.3822 27.1996C16.5022 27.9196 16.0422 28.9329 16.0022 30.2396H18.7422C18.7956 29.7996 18.9822 29.3996 19.3022 29.0396C19.6222 28.6796 20.1022 28.4996 20.7422 28.4996C21.3822 28.4996 21.8756 28.6596 22.2222 28.9796C22.5689 29.2996 22.7422 29.7329 22.7422 30.2796C22.7422 31.5463 21.7956 32.1796 19.9022 32.1796H19.3222V34.4796H19.9022C20.9822 34.4796 21.7689 34.6529 22.2622 34.9996C22.7689 35.3329 23.0222 35.8529 23.0222 36.5596C23.0222 37.2663 22.8356 37.8129 22.4622 38.1996C22.1022 38.5729 21.5689 38.7596 20.8622 38.7596C20.1556 38.7596 19.5889 38.5663 19.1622 38.1796C18.7489 37.7796 18.5289 37.2529 18.5022 36.5996H15.7822C15.8222 38.0663 16.3156 39.1796 17.2622 39.9396C18.2089 40.6996 19.4289 41.0796 20.9222 41.0796C22.4156 41.0796 23.5889 40.6996 24.4422 39.9396C25.2956 39.1796 25.7222 38.1796 25.7222 36.9396C25.7222 35.0729 24.9222 33.8663 23.3222 33.3196V33.2396C23.8689 33.0529 24.3622 32.6729 24.8022 32.0996C25.2422 31.5129 25.4622 30.7929 25.4622 29.9396C25.4622 28.8329 25.0556 27.9196 24.2422 27.1996C23.4289 26.4663 22.3022 26.0996 20.8622 26.0996C19.4356 26.0996 18.2756 26.4663 17.3822 27.1996Z"
    fill="#3D4046" />
  <path fill-rule="evenodd" clip-rule="evenodd"
    d="M33.2949 26.4596C29.7082 26.4596 27.9149 28.8796 27.9149 33.7196C27.9149 38.5463 29.7082 40.9596 33.2949 40.9596C36.8949 40.9596 38.6949 38.5463 38.6949 33.7196C38.6949 28.8796 36.8949 26.4596 33.2949 26.4596ZM33.3149 29.0596C33.7682 29.0596 34.1616 29.1463 34.4949 29.3196C34.8282 29.4929 35.0816 29.7129 35.2549 29.9796C35.4416 30.2463 35.5882 30.5996 35.6949 31.0396C35.8016 31.4663 35.8682 31.8796 35.8949 32.2796C35.9349 32.6796 35.9549 33.1529 35.9549 33.6996C35.9549 34.2463 35.9349 34.7196 35.8949 35.1196C35.8682 35.5196 35.8016 35.9396 35.6949 36.3796C35.5882 36.8063 35.4416 37.1596 35.2549 37.4396C35.0816 37.7063 34.8282 37.9263 34.4949 38.0996C34.1616 38.2729 33.7682 38.3596 33.3149 38.3596C32.8615 38.3596 32.4682 38.2729 32.1349 38.0996C31.8015 37.9263 31.5416 37.7063 31.3549 37.4396C31.1816 37.1596 31.0416 36.8063 30.9349 36.3796C30.8282 35.9396 30.7549 35.5196 30.7149 35.1196C30.6882 34.7196 30.6749 34.2463 30.6749 33.6996C30.6749 33.1529 30.6882 32.6796 30.7149 32.2796C30.7549 31.8796 30.8282 31.4663 30.9349 31.0396C31.0416 30.5996 31.1816 30.2463 31.3549 29.9796C31.5416 29.7129 31.8015 29.4929 32.1349 29.3196C32.4682 29.1463 32.8615 29.0596 33.3149 29.0596Z"
    fill="#3D4046" />
  <path fill-rule="evenodd" clip-rule="evenodd"
    d="M14 3.5V5H39V3.5C39 1.567 40.567 0 42.5 0C44.433 0 46 1.567 46 3.5V5H53V53H0V5H7V3.5C7 1.567 8.567 0 10.5 0C12.433 0 14 1.567 14 3.5ZM46 7V8.5C46 10.433 44.433 12 42.5 12C40.567 12 39 10.433 39 8.5V7H14V8.5C14 10.433 12.433 12 10.5 12C8.567 12 7 10.433 7 8.5V7H2V15H51V7H46ZM10.5 2C9.67157 2 9 2.67157 9 3.5V8.5C9 9.32843 9.67157 10 10.5 10C11.3284 10 12 9.32843 12 8.5V3.5C12 2.67157 11.3284 2 10.5 2ZM2 17H51V51H2V17ZM41 3.5C41 2.67157 41.6716 2 42.5 2C43.3284 2 44 2.67157 44 3.5V8.5C44 9.32843 43.3284 10 42.5 10C41.6716 10 41 9.32843 41 8.5V3.5Z"
    fill="#3D4046" />
  <path d="M59 59V14H57V57H6V59H59Z" fill="#3D4046" />
</svg>