<svg width="24" height="25" viewBox="0 0 24 25" fill="none" xmlns="http://www.w3.org/2000/svg">
  <g clip-path="url(#clip0_3_1412)">
    <path
      d="M12 2.5C17.514 2.5 22 6.986 22 12.5C22 18.014 17.514 22.5 12 22.5C6.486 22.5 2 18.014 2 12.5C2 6.986 6.486 2.5 12 2.5ZM12 0.5C5.373 0.5 0 5.873 0 12.5C0 19.127 5.373 24.5 12 24.5C18.627 24.5 24 19.127 24 12.5C24 5.873 18.627 0.5 12 0.5ZM9 17.5V7.5L18 12.646L9 17.5Z"
      fill="white" />
  </g>
  <defs>
    <clipPath id="clip0_3_1412">
      <rect width="24" height="24" fill="white" transform="translate(0 0.5)" />
    </clipPath>
  </defs>
</svg>