<svg width="54" height="60" viewBox="0 0 54 60" fill="none" xmlns="http://www.w3.org/2000/svg">
  <path fill-rule="evenodd" clip-rule="evenodd"
    d="M12.2424 8.39398C11.1093 8.39398 10.024 8.84712 9.22457 9.65149C8.62901 10.2516 8.22377 11.0158 8.05996 11.8461C7.89616 12.6763 7.98038 13.5368 8.30226 14.3193C8.62417 15.1017 9.16968 15.7717 9.87092 16.2435C10.5723 16.7155 11.3975 16.9678 12.2424 16.9678C13.0872 16.9678 13.9125 16.7155 14.6138 16.2435C15.315 15.7717 15.8606 15.1017 16.1825 14.3193C16.5043 13.5368 16.5886 12.6763 16.4248 11.8461C16.261 11.0158 15.8557 10.2516 15.2602 9.65149C14.4607 8.84712 13.3755 8.39398 12.2424 8.39398ZM10.6433 11.0611C11.0688 10.6331 11.6441 10.394 12.2424 10.394C12.8406 10.394 13.4159 10.6331 13.8414 11.0611C14.1583 11.3806 14.3748 11.7883 14.4626 12.2332C14.5504 12.6783 14.5052 13.1395 14.3329 13.5583C14.1606 13.9771 13.8694 14.3338 13.4972 14.5842C13.1252 14.8346 12.6885 14.9678 12.2424 14.9678C11.7963 14.9678 11.3596 14.8346 10.9875 14.5842C10.6153 14.3338 10.3241 13.9771 10.1519 13.5583C9.97957 13.1395 9.93432 12.6783 10.0221 12.2332C10.1099 11.7883 10.3265 11.3806 10.6433 11.0611Z"
    fill="white" />
  <path fill-rule="evenodd" clip-rule="evenodd"
    d="M30.9792 19.5715C29.5254 18.1074 27.1681 18.1063 25.7141 19.5706C24.2601 21.0348 24.2611 23.4087 25.715 24.8728C27.1689 26.3369 29.5262 26.338 30.9802 24.8738C32.4342 23.4095 32.4331 21.0356 30.9792 19.5715ZM27.1233 20.9897C27.7984 20.3099 28.8938 20.3097 29.57 20.9907C30.2462 21.6716 30.246 22.7748 29.5709 23.4546C28.8959 24.1344 27.8005 24.1346 27.1242 23.4537C26.448 22.7727 26.4483 21.6696 27.1233 20.9897Z"
    fill="white" />
  <path d="M18.6629 30.0386L36.8998 29.8154L36.8756 27.8085L18.6387 28.0317L18.6629 30.0386Z" fill="white" />
  <path fill-rule="evenodd" clip-rule="evenodd"
    d="M31.3062 33.1598C29.8523 31.6957 27.495 31.6947 26.041 33.1589C24.587 34.6232 24.5881 36.9971 26.0419 38.4612C27.4958 39.9253 29.8531 39.9263 31.3071 38.4621C32.7611 36.9979 32.76 34.624 31.3062 33.1598ZM27.4502 34.5781C28.1253 33.8983 29.2207 33.898 29.8969 34.579C30.5731 35.26 30.5729 36.3631 29.8978 37.0429C29.2228 37.7227 28.1274 37.723 27.4512 37.042C26.775 36.361 26.7752 35.2579 27.4502 34.5781Z"
    fill="white" />
  <path fill-rule="evenodd" clip-rule="evenodd"
    d="M22.1611 0H0V22.393L31.4785 54.088L53.743 31.6773L22.1611 0ZM2 21.5686V2H21.3309L50.9213 31.6798L31.4787 51.2501L2 21.5686Z"
    fill="white" />
  <path
    d="M2.58772 28.0244L1.16889 29.434L31.4928 59.9568L52.376 38.9365L50.9571 37.527L31.4928 57.1191L2.58772 28.0244Z"
    fill="white" />
</svg>