<svg width="53" height="60" viewBox="0 0 53 60" fill="none" xmlns="http://www.w3.org/2000/svg">
  <path
    d="M26.6667 20.3333C26.6667 21.622 25.622 22.6667 24.3333 22.6667C23.0447 22.6667 22 21.622 22 20.3333C22 19.0447 23.0447 18 24.3333 18C25.622 18 26.6667 19.0447 26.6667 20.3333Z"
    fill="#3D4046" />
  <path
    d="M36 20.3333C36 21.622 34.9553 22.6667 33.6667 22.6667C32.378 22.6667 31.3333 21.622 31.3333 20.3333C31.3333 19.0447 32.378 18 33.6667 18C34.9553 18 36 19.0447 36 20.3333Z"
    fill="#3D4046" />
  <path
    d="M43 22.6667C44.2887 22.6667 45.3333 21.622 45.3333 20.3333C45.3333 19.0447 44.2887 18 43 18C41.7113 18 40.6667 19.0447 40.6667 20.3333C40.6667 21.622 41.7113 22.6667 43 22.6667Z"
    fill="#3D4046" />
  <path fill-rule="evenodd" clip-rule="evenodd"
    d="M33.5376 3.68959e-05C28.787 -0.00927174 24.1987 1.7431 20.6322 4.92465C17.0661 8.10582 14.7666 12.4969 14.1602 17.2734C13.5538 22.0497 14.6813 26.8883 17.3341 30.8829C19.9871 34.8779 23.985 37.756 28.5813 38.973C33.0371 40.1527 37.7547 39.6916 41.9007 37.6812L52.8497 41.5829L49.875 30.5614C52.3632 26.6529 53.4188 21.975 52.8493 17.3491C52.2609 12.5703 49.9781 8.17024 46.4242 4.97515C42.8699 1.77968 38.2882 0.00934553 33.5376 3.68959e-05ZM21.9636 6.41711C25.1655 3.56072 29.2794 1.9917 33.5337 2.00003C37.788 2.00837 41.8959 3.5935 45.0871 6.46246C48.2787 9.33179 50.3343 13.2888 50.8642 17.5934C51.3942 21.8982 50.3613 26.2502 47.962 29.8333L47.7089 30.2112L49.9237 38.4171L41.7636 35.5092L41.3788 35.7066C37.5785 37.6564 33.2108 38.1298 29.0932 37.0396C24.9752 35.9493 21.3856 33.3686 19.0001 29.7765C16.6144 26.184 15.598 21.8279 16.1443 17.5253C16.6905 13.2228 18.7612 9.27388 21.9636 6.41711Z"
    fill="#3D4046" />
  <path d="M11.0781 23H0V51H5V60.2091L15.4861 51H45V42H43V49H14.7326L7 55.7909V49H2V25H11.0781V23Z" fill="#3D4046" />
  <path d="M13 32H7V30H13V32Z" fill="#3D4046" />
  <path d="M7 38H17V36H7V38Z" fill="#3D4046" />
  <path d="M24.9985 44.03L6.99854 44L7.00186 42L25.0018 42.03L24.9985 44.03Z" fill="#3D4046" />
</svg>