<svg width="20" height="24" viewBox="0 0 20 24" fill="none" xmlns="http://www.w3.org/2000/svg">
  <path
    d="M20 2V24H0V2H3C4.23 2 5.181 0.916 6 0H14C14.82 0.916 15.771 2 17 2H20ZM9 3C9 3.552 9.448 4 10 4C10.553 4 11 3.552 11 3C11 2.448 10.553 2 10 2C9.448 2 9 2.448 9 3ZM18 4H14L12 6H8.103L6 4H2V22H18V4ZM5 13.729L5.855 12.938C6.855 13.422 7.49 13.79 8.615 14.592C10.728 12.193 12.126 10.976 14.721 9.361L15 10.001C12.859 11.87 11.291 13.95 9.033 18C7.64 16.36 6.711 15.314 5 13.729V13.729Z"
    fill="#0071CE" />
</svg>