<svg width="22" height="24" viewBox="0 0 22 24" fill="none" xmlns="http://www.w3.org/2000/svg">
  <path
    d="M15.9999 1.221L21.9999 0L20.7989 6.001L19.1319 4.341L10.8519 12.478L7.86093 9.485L1.43393 15.875L0.0239258 14.457L7.86493 6.66L10.8659 9.662L17.7159 2.929L15.9999 1.221Z"
    fill="#A6ACB2" />
  <path fill-rule="evenodd" clip-rule="evenodd" d="M8 24V15H14V24H8ZM10 17H12V22H10V17Z" fill="#A6ACB2" />
  <path fill-rule="evenodd" clip-rule="evenodd" d="M22 11H16V24H22V11ZM20 22H18V13H20V22Z" fill="#A6ACB2" />
  <path fill-rule="evenodd" clip-rule="evenodd" d="M6 18V24H0V18H6ZM4 22H2V20H4V22Z" fill="#A6ACB2" />
</svg>